<?xml version="1.0" encoding="iso-8859-1"?>
<!-- Generator: Adobe Illustrator 19.0.0, SVG Export Plug-In . SVG Version: 6.00 Build 0)  -->
<svg version="1.1" id="Capa_1" xmlns="http://www.w3.org/2000/svg" xmlns:xlink="http://www.w3.org/1999/xlink" x="0px" y="0px"
	 viewBox="0 0 480 480" style="enable-background:new 0 0 480 480; " xml:space="preserve">
<g>
	<g>
		<path d="M480,136C480,60.889,419.111,0,344,0H136C60.889,0,0,60.889,0,136v8h16.88c-22.074,21.663-22.408,57.118-0.745,79.192
			c4.145,4.223,8.932,7.763,14.185,10.488C0.322,252.374-8.842,291.847,9.852,321.845c3.288,5.276,7.326,10.044,11.988,14.155H0v8
			c0,75.111,60.889,136,136,136h208c75.111,0,136-60.889,136-136v-8h-21.84c26.511-23.377,29.052-63.82,5.675-90.332
			c-4.111-4.662-8.88-8.701-14.155-11.988c27.455-14.24,38.167-48.04,23.928-75.495c-2.724-5.253-6.264-10.041-10.488-14.185H480
			V136z M464,352c-4.218,63.131-56.728,112.141-120,112H136c-63.272,0.141-115.782-48.869-120-112H464z M464,288
			c0,26.51-21.49,48-48,48H64c-26.51,0-48-21.49-48-48c0-26.51,21.49-48,48-48h352C442.51,240,464,261.49,464,288z M463.28,176.8
			c0.445,2.375,0.686,4.784,0.72,7.2c0,22.091-17.909,40-40,40H56c-22.091,0-40-17.909-40-40c0.034-2.416,0.274-4.825,0.72-7.2
			c9.358,2.035,17.953,6.665,24.8,13.36c24.318,23.803,63.202,23.803,87.52,0c18.078-18.535,47.759-18.905,66.293-0.827
			c0.279,0.272,0.555,0.548,0.827,0.827c24.318,23.803,63.202,23.803,87.52,0c18.119-18.557,47.85-18.912,66.407-0.793
			c0.268,0.261,0.532,0.526,0.793,0.793c24.318,23.803,63.202,23.803,87.52,0C445.277,183.462,453.898,178.833,463.28,176.8z
			 M22.88,161.6c7.435-11,19.843-17.593,33.12-17.6h368c13.277,0.007,25.685,6.6,33.12,17.6c-10.794,2.883-20.712,8.378-28.88,16
			c-18.119,18.557-47.85,18.912-66.407,0.793c-0.268-0.261-0.532-0.526-0.793-0.793c-24.318-23.802-63.202-23.802-87.52,0
			c-18.078,18.535-47.759,18.905-66.293,0.827c-0.279-0.272-0.555-0.548-0.827-0.827c-24.318-23.802-63.202-23.802-87.52,0
			c-18.078,18.535-47.758,18.905-66.293,0.827c-0.279-0.272-0.555-0.548-0.827-0.827C43.567,170.012,33.658,164.522,22.88,161.6z
			 M16,128C20.218,64.869,72.728,15.859,136,16h208c63.272-0.141,115.782,48.869,120,112H16z" fill="#f68174"/>
	</g>
</g>
<g>
	<g>
		<path d="M256,32h-32c-4.418,0-8,3.582-8,8s3.582,8,8,8h32c4.418,0,8-3.582,8-8S260.418,32,256,32z" fill="#f68174"/>
	</g>
</g>
<g>
	<g>
		<path d="M128,32h-16c-4.418,0-8,3.582-8,8s3.582,8,8,8h16c4.418,0,8-3.582,8-8S132.418,32,128,32z" fill="#f68174"/>
	</g>
</g>
<g>
	<g>
		<path d="M368,32h-16c-4.418,0-8,3.582-8,8s3.582,8,8,8h16c4.418,0,8-3.582,8-8S372.418,32,368,32z" fill="#f68174"/>
	</g>
</g>
<g>
	<g>
		<path d="M192,56h-32c-4.418,0-8,3.582-8,8s3.582,8,8,8h32c4.418,0,8-3.582,8-8S196.418,56,192,56z" fill="#f68174"/>
	</g>
</g>
<g>
	<g>
		<path d="M320,56h-32c-4.418,0-8,3.582-8,8s3.582,8,8,8h32c4.418,0,8-3.582,8-8S324.418,56,320,56z" fill="#f68174"/>
	</g>
</g>
<g>
	<g>
		<rect x="56.005" y="260.747" transform="matrix(0.7071 -0.7071 0.7071 0.7071 -173.6336 124.9442)" width="16" height="22.64" fill="#f68174"/>
	</g>
</g>
<g>
	<g>
		<rect x="92.717" y="295.954" transform="matrix(0.7071 -0.7071 0.7071 0.7071 -184.4561 162.591)" width="22.64" height="16" fill="#f68174"/>
	</g>
</g>
<g>
	<g>
		<rect x="136.014" y="260.738" transform="matrix(0.7071 -0.7071 0.7071 0.7071 -150.1937 181.517)" width="16" height="22.64" fill="#f68174"/>
	</g>
</g>
<g>
	<g>
		<rect x="172.725" y="295.945" transform="matrix(0.7071 -0.7071 0.7071 0.7071 -161.0158 219.1632)" width="22.64" height="16" fill="#f68174"/>
	</g>
</g>
<g>
	<g>
		<rect x="216.022" y="260.73" transform="matrix(0.7071 -0.7071 0.7071 0.7071 -126.7536 238.0901)" width="16" height="22.64" fill="#f68174"/>
	</g>
</g>
<g>
	<g>
		<rect x="252.734" y="295.936" transform="matrix(0.7071 -0.7071 0.7071 0.7071 -137.5755 275.7346)" width="22.64" height="16" fill="#f68174"/>
	</g>
</g>
<g>
	<g>
		<rect x="296.031" y="260.721" transform="matrix(0.7071 -0.7071 0.7071 0.7071 -103.3132 294.6625)" width="16" height="22.64" fill="#f68174"/>
	</g>
</g>
<g>
	<g>
		<rect x="332.743" y="296.007" transform="matrix(0.7071 -0.7071 0.7071 0.7071 -114.1918 332.3319)" width="22.64" height="16" fill="#f68174"/>
	</g>
</g>
<g>
	<g>
		<rect x="376.04" y="260.712" transform="matrix(0.7071 -0.7071 0.7071 0.7071 -79.8727 351.2348)" width="16" height="22.64" fill="#f68174"/>
	</g>
</g>
<g>
	<g>
		<rect x="412.672" y="295.998" transform="matrix(0.7071 -0.7071 0.7071 0.7071 -90.7751 388.8466)" width="22.64" height="16" fill="#f68174"/>
	</g>
</g>
<g>
</g>
<g>
</g>
<g>
</g>
<g>
</g>
<g>
</g>
<g>
</g>
<g>
</g>
<g>
</g>
<g>
</g>
<g>
</g>
<g>
</g>
<g>
</g>
<g>
</g>
<g>
</g>
<g>
</g>
</svg>
